<mxfile host="app.diagrams.net" modified="2021-10-28T07:48:39.032Z" agent="5.0 (Windows NT 10.0; Win64; x64) AppleWebKit/537.36 (KHTML, like Gecko) Chrome/95.0.4638.54 Safari/537.36" etag="F8lBWPBT7DbsfPH87rGp" version="15.4.3" type="github">
  <diagram id="P68umq9dfZ4SEVHugc9G" name="Page-1">
    <mxGraphModel dx="1422" dy="762" grid="1" gridSize="10" guides="1" tooltips="1" connect="1" arrows="1" fold="1" page="1" pageScale="1" pageWidth="827" pageHeight="1169" math="0" shadow="0">
      <root>
        <mxCell id="0" />
        <mxCell id="1" parent="0" />
        <mxCell id="hwS7KiWmicex96-AS6qT-7" value="Cluster" style="rounded=0;whiteSpace=wrap;html=1;verticalAlign=top;" vertex="1" parent="1">
          <mxGeometry x="60" y="210" width="440" height="130" as="geometry" />
        </mxCell>
        <mxCell id="hwS7KiWmicex96-AS6qT-4" value="" style="edgeStyle=orthogonalEdgeStyle;rounded=0;orthogonalLoop=1;jettySize=auto;html=1;" edge="1" parent="1" source="hwS7KiWmicex96-AS6qT-1" target="hwS7KiWmicex96-AS6qT-3">
          <mxGeometry relative="1" as="geometry" />
        </mxCell>
        <mxCell id="hwS7KiWmicex96-AS6qT-1" value="Pod" style="ellipse;whiteSpace=wrap;html=1;aspect=fixed;" vertex="1" parent="1">
          <mxGeometry x="80" y="240" width="80" height="80" as="geometry" />
        </mxCell>
        <mxCell id="hwS7KiWmicex96-AS6qT-6" value="" style="edgeStyle=orthogonalEdgeStyle;rounded=0;orthogonalLoop=1;jettySize=auto;html=1;" edge="1" parent="1" source="hwS7KiWmicex96-AS6qT-3" target="hwS7KiWmicex96-AS6qT-5">
          <mxGeometry relative="1" as="geometry" />
        </mxCell>
        <mxCell id="hwS7KiWmicex96-AS6qT-3" value="Service" style="ellipse;whiteSpace=wrap;html=1;aspect=fixed;" vertex="1" parent="1">
          <mxGeometry x="240" y="240" width="80" height="80" as="geometry" />
        </mxCell>
        <mxCell id="hwS7KiWmicex96-AS6qT-5" value="Pod" style="ellipse;whiteSpace=wrap;html=1;aspect=fixed;" vertex="1" parent="1">
          <mxGeometry x="400" y="240" width="80" height="80" as="geometry" />
        </mxCell>
        <mxCell id="hwS7KiWmicex96-AS6qT-8" value="&amp;nbsp; &amp;nbsp; &amp;nbsp; &amp;nbsp; &amp;nbsp; &amp;nbsp; &amp;nbsp; &amp;nbsp; &amp;nbsp; &amp;nbsp; &amp;nbsp; &amp;nbsp; &amp;nbsp; &amp;nbsp; &amp;nbsp; &amp;nbsp; &amp;nbsp; &amp;nbsp; &amp;nbsp; &amp;nbsp; &amp;nbsp; &amp;nbsp; &amp;nbsp; &amp;nbsp; &amp;nbsp; &amp;nbsp; &amp;nbsp; &amp;nbsp; &amp;nbsp; &amp;nbsp; &amp;nbsp; &amp;nbsp; &amp;nbsp; &amp;nbsp; &amp;nbsp; &amp;nbsp; &amp;nbsp; &amp;nbsp; &amp;nbsp; &amp;nbsp; &amp;nbsp; &amp;nbsp; &amp;nbsp; &amp;nbsp; &amp;nbsp; &amp;nbsp; &amp;nbsp; &amp;nbsp; &amp;nbsp; &amp;nbsp; &amp;nbsp; &amp;nbsp; &amp;nbsp; &amp;nbsp; Cluster" style="rounded=0;whiteSpace=wrap;html=1;verticalAlign=top;" vertex="1" parent="1">
          <mxGeometry x="60" y="560" width="440" height="250" as="geometry" />
        </mxCell>
        <mxCell id="hwS7KiWmicex96-AS6qT-15" value="" style="edgeStyle=orthogonalEdgeStyle;rounded=0;orthogonalLoop=1;jettySize=auto;html=1;" edge="1" parent="1" source="hwS7KiWmicex96-AS6qT-10" target="hwS7KiWmicex96-AS6qT-14">
          <mxGeometry relative="1" as="geometry" />
        </mxCell>
        <mxCell id="hwS7KiWmicex96-AS6qT-10" value="Pod" style="ellipse;whiteSpace=wrap;html=1;aspect=fixed;" vertex="1" parent="1">
          <mxGeometry x="80" y="710" width="80" height="80" as="geometry" />
        </mxCell>
        <mxCell id="hwS7KiWmicex96-AS6qT-11" value="" style="edgeStyle=orthogonalEdgeStyle;rounded=0;orthogonalLoop=1;jettySize=auto;html=1;" edge="1" parent="1" source="hwS7KiWmicex96-AS6qT-12" target="hwS7KiWmicex96-AS6qT-13">
          <mxGeometry relative="1" as="geometry" />
        </mxCell>
        <mxCell id="hwS7KiWmicex96-AS6qT-12" value="Service" style="ellipse;whiteSpace=wrap;html=1;aspect=fixed;" vertex="1" parent="1">
          <mxGeometry x="240" y="710" width="80" height="80" as="geometry" />
        </mxCell>
        <mxCell id="hwS7KiWmicex96-AS6qT-13" value="Pod" style="ellipse;whiteSpace=wrap;html=1;aspect=fixed;" vertex="1" parent="1">
          <mxGeometry x="400" y="710" width="80" height="80" as="geometry" />
        </mxCell>
        <mxCell id="hwS7KiWmicex96-AS6qT-17" value="" style="edgeStyle=orthogonalEdgeStyle;rounded=0;orthogonalLoop=1;jettySize=auto;html=1;" edge="1" parent="1" source="hwS7KiWmicex96-AS6qT-14" target="hwS7KiWmicex96-AS6qT-16">
          <mxGeometry relative="1" as="geometry" />
        </mxCell>
        <mxCell id="hwS7KiWmicex96-AS6qT-14" value="Silverline" style="ellipse;whiteSpace=wrap;html=1;aspect=fixed;" vertex="1" parent="1">
          <mxGeometry x="80" y="430" width="80" height="80" as="geometry" />
        </mxCell>
        <mxCell id="hwS7KiWmicex96-AS6qT-20" value="" style="edgeStyle=orthogonalEdgeStyle;rounded=0;orthogonalLoop=1;jettySize=auto;html=1;" edge="1" parent="1" source="hwS7KiWmicex96-AS6qT-16" target="hwS7KiWmicex96-AS6qT-19">
          <mxGeometry relative="1" as="geometry" />
        </mxCell>
        <mxCell id="hwS7KiWmicex96-AS6qT-16" value="NGINX" style="ellipse;whiteSpace=wrap;html=1;aspect=fixed;" vertex="1" parent="1">
          <mxGeometry x="240" y="430" width="80" height="80" as="geometry" />
        </mxCell>
        <mxCell id="hwS7KiWmicex96-AS6qT-21" value="" style="edgeStyle=orthogonalEdgeStyle;rounded=0;orthogonalLoop=1;jettySize=auto;html=1;" edge="1" parent="1" source="hwS7KiWmicex96-AS6qT-19" target="hwS7KiWmicex96-AS6qT-12">
          <mxGeometry relative="1" as="geometry" />
        </mxCell>
        <mxCell id="hwS7KiWmicex96-AS6qT-19" value="NGINX&lt;br&gt;Ingress Controller" style="ellipse;whiteSpace=wrap;html=1;aspect=fixed;" vertex="1" parent="1">
          <mxGeometry x="240" y="590" width="80" height="80" as="geometry" />
        </mxCell>
      </root>
    </mxGraphModel>
  </diagram>
</mxfile>
